<svg xmlns="http://www.w3.org/2000/svg" width="1774" height="810" viewBox="0 0 1774 810" font-family="Hiragino Sans, Hiragino Kaku Gothic ProN, Noto Sans CJK JP, sans-serif"><title>FlutterKaigi 2026 visitor floor</title><rect width="100%" height="100%" fill="white"/><rect x="26" y="77" width="1718" height="686" rx="6" fill="#FCFDFE" stroke="none" stroke-width="0" /><rect x="48" y="77" width="1680" height="67" rx="0" fill="#CBD2DA" stroke="none" stroke-width="0" /><path d="M389 77H1361V363H529V303H444V336H389Z" fill="#CBD2DA" stroke="none" stroke-width="0" stroke-linecap="round" stroke-linejoin="round" /><rect x="1361" y="77" width="71" height="229" rx="0" fill="#CBD2DA" stroke="none" stroke-width="0" /><path d="M389 664H439V704H488V664H634V763H389Z" fill="#CBD2DA" stroke="none" stroke-width="0" stroke-linecap="round" stroke-linejoin="round" /><rect x="1219" y="682" width="213" height="81" rx="0" fill="#CBD2DA" stroke="none" stroke-width="0" /><path d="M48 144H389V336H444V406H389V431H48Z" fill="#ECE7FA" stroke="none" stroke-width="0" stroke-linecap="round" stroke-linejoin="round" /><path d="M48 447H389V467H444V548H389V590H444V644H389V739H48Z" fill="#E2EEFB" stroke="none" stroke-width="0" stroke-linecap="round" stroke-linejoin="round" /><path d="M1432 144H1726V418H1432V389H1407V307H1432Z" fill="#FCEBE3" stroke="none" stroke-width="0" stroke-linecap="round" stroke-linejoin="round" /><path d="M1432 434H1726V739H1432V668H1407V624H1432V517H1407V440H1432Z" fill="#E5F4EC" stroke="none" stroke-width="0" stroke-linecap="round" stroke-linejoin="round" /><rect x="389" y="406" width="82" height="61" rx="0" fill="#CBD2DA" stroke="#375666" stroke-width="2.7" /><rect x="389" y="548" width="33" height="42" rx="0" fill="#CBD2DA" stroke="#375666" stroke-width="2.7" /><path d="M48 431V144H389V336H444V340 M444 370V374 M444 403V406H389V431H48" fill="none" stroke="#375666" stroke-width="2.7" stroke-linecap="round" stroke-linejoin="round" /><path d="M48 739V447H389V467H444V470 M444 505V509 M444 545V548H389V590H444V594 M444 640V644H389V739H48" fill="none" stroke="#375666" stroke-width="2.7" stroke-linecap="round" stroke-linejoin="round" /><path d="M1726 418V144H1432V307H1407V310 M1407 345V350 M1407 386V389H1432V418H1726" fill="none" stroke="#375666" stroke-width="2.7" stroke-linecap="round" stroke-linejoin="round" /><path d="M1726 739V434H1432V440H1407V443 M1407 476V481 M1407 513V517H1432V624H1407V628 M1407 665V668H1432V739H1726" fill="none" stroke="#375666" stroke-width="2.7" stroke-linecap="round" stroke-linejoin="round" /><path d="M389 77V336H444V303H529V363H1361V77 M1361 306H1432 M1432 77V144" fill="none" stroke="#375666" stroke-width="2.7" stroke-linecap="round" stroke-linejoin="round" /><path d="M48 77V144 M1726 77V144" fill="none" stroke="#375666" stroke-width="2.7" stroke-linecap="round" stroke-linejoin="round" /><path d="M389 664H439V704H488V664H634 M389 739V763 M439 704V763 M488 704V763" fill="none" stroke="#375666" stroke-width="2.7" stroke-linecap="round" stroke-linejoin="round" /><rect x="544" y="664" width="90" height="20" rx="0" fill="#CBD2DA" stroke="none" stroke-width="0" /><rect x="634" y="664" width="166" height="18" rx="0" fill="#CBD2DA" stroke="none" stroke-width="0" /><rect x="1048" y="664" width="171" height="18" rx="0" fill="#CBD2DA" stroke="none" stroke-width="0" /><path d="M548 568H838V664H520V642H548Z" fill="#E2EFFB" stroke="none" stroke-width="0" stroke-linecap="round" stroke-linejoin="round" /><rect x="800" y="588" width="38" height="94" rx="0" fill="#CBD2DA" stroke="none" stroke-width="0" /><path d="M968 588H988V644H1020V664H1048V682H990V664H968Z" fill="#CBD2DA" stroke="none" stroke-width="0" stroke-linecap="round" stroke-linejoin="round" /><path d="M1260 592H1383V727H1219V664H1260Z" fill="#CBD2DA" stroke="none" stroke-width="0" stroke-linecap="round" stroke-linejoin="round" /><path d="M968 568H1272V592H1260V664H1020V644H988V588H968Z" fill="#FCECEF" stroke="none" stroke-width="0" stroke-linecap="round" stroke-linejoin="round" /><rect x="1012" y="568" width="30" height="40" rx="0" fill="#FCFDFE" stroke="none" stroke-width="0" /><rect x="1042" y="568" width="46" height="52" rx="0" fill="#E5F5EF" stroke="none" stroke-width="0" /><path d="M813 568H548V642H520 M488 664H800 M838 568V682H800V588H838" fill="none" stroke="#375666" stroke-width="2.7" stroke-linecap="round" stroke-linejoin="round" /><path d="M777 568V609 M800 588V664" fill="none" stroke="#375666" stroke-width="2.7" stroke-linecap="round" stroke-linejoin="round" /><path d="M634 664V682H838 M634 682V763" fill="none" stroke="#375666" stroke-width="2.7" stroke-linecap="round" stroke-linejoin="round" /><path d="M968 568V588H988V644H1020V664H1260V592" fill="none" stroke="#375666" stroke-width="2.7" stroke-linecap="round" stroke-linejoin="round" /><path d="M995 568H1012 M1012 568V608H1042" fill="none" stroke="#375666" stroke-width="2.7" stroke-linecap="round" stroke-linejoin="round" /><path d="M1042 568H1272 M1220 568V610 M1240 592H1383V727H1219V664" fill="none" stroke="#375666" stroke-width="2.7" stroke-linecap="round" stroke-linejoin="round" /><path d="M1042 568V584 M1042 602V620H1088V568" fill="none" stroke="#375666" stroke-width="2.7" stroke-linecap="round" stroke-linejoin="round" /><path d="M968 588V664H990V682H1048V664 M999 682H1219V763" fill="none" stroke="#375666" stroke-width="2.7" stroke-linecap="round" stroke-linejoin="round" /><g id="escalator-run-west-upper"><path d="M670 693H879V713H659Z" fill="#F0F5F8" stroke="none" stroke-width="0" stroke-linecap="round" stroke-linejoin="round" /><path d="M879 693H670L659 713H879" fill="none" stroke="#375666" stroke-width="2.4" stroke-linecap="round" stroke-linejoin="round" /></g><g id="escalator-run-west-lower"><path d="M650 728H879V748H639Z" fill="#F0F5F8" stroke="none" stroke-width="0" stroke-linecap="round" stroke-linejoin="round" /><path d="M879 728H650L639 748H879" fill="none" stroke="#375666" stroke-width="2.4" stroke-linecap="round" stroke-linejoin="round" /></g><g id="escalator-run-east-upper"><path d="M1000 693H1219V713H1000Z" fill="#F0F5F8" stroke="none" stroke-width="0" stroke-linecap="round" stroke-linejoin="round" /><path d="M1000 693H1219V713H1000" fill="none" stroke="#375666" stroke-width="2.4" stroke-linecap="round" stroke-linejoin="round" /></g><g id="escalator-run-east-lower"><path d="M1000 728H1219V748H1000Z" fill="#F0F5F8" stroke="none" stroke-width="0" stroke-linecap="round" stroke-linejoin="round" /><path d="M1000 728H1219V748H1000" fill="none" stroke="#375666" stroke-width="2.4" stroke-linecap="round" stroke-linejoin="round" /></g><path d="M678 696V710" fill="none" stroke="#A9BCC9" stroke-width="0.9" stroke-linecap="round" stroke-linejoin="round" /><path d="M686 696V710" fill="none" stroke="#A9BCC9" stroke-width="0.9" stroke-linecap="round" stroke-linejoin="round" /><path d="M694 696V710" fill="none" stroke="#A9BCC9" stroke-width="0.9" stroke-linecap="round" stroke-linejoin="round" /><path d="M702 696V710" fill="none" stroke="#A9BCC9" stroke-width="0.9" stroke-linecap="round" stroke-linejoin="round" /><path d="M710 696V710" fill="none" stroke="#A9BCC9" stroke-width="0.9" stroke-linecap="round" stroke-linejoin="round" /><path d="M718 696V710" fill="none" stroke="#A9BCC9" stroke-width="0.9" stroke-linecap="round" stroke-linejoin="round" /><path d="M726 696V710" fill="none" stroke="#A9BCC9" stroke-width="0.9" stroke-linecap="round" stroke-linejoin="round" /><path d="M734 696V710" fill="none" stroke="#A9BCC9" stroke-width="0.9" stroke-linecap="round" stroke-linejoin="round" /><path d="M742 696V710" fill="none" stroke="#A9BCC9" stroke-width="0.9" stroke-linecap="round" stroke-linejoin="round" /><path d="M750 696V710" fill="none" stroke="#A9BCC9" stroke-width="0.9" stroke-linecap="round" stroke-linejoin="round" /><path d="M758 696V710" fill="none" stroke="#A9BCC9" stroke-width="0.9" stroke-linecap="round" stroke-linejoin="round" /><path d="M766 696V710" fill="none" stroke="#A9BCC9" stroke-width="0.9" stroke-linecap="round" stroke-linejoin="round" /><path d="M774 696V710" fill="none" stroke="#A9BCC9" stroke-width="0.9" stroke-linecap="round" stroke-linejoin="round" /><path d="M782 696V710" fill="none" stroke="#A9BCC9" stroke-width="0.9" stroke-linecap="round" stroke-linejoin="round" /><path d="M790 696V710" fill="none" stroke="#A9BCC9" stroke-width="0.9" stroke-linecap="round" stroke-linejoin="round" /><path d="M798 696V710" fill="none" stroke="#A9BCC9" stroke-width="0.9" stroke-linecap="round" stroke-linejoin="round" /><path d="M806 696V710" fill="none" stroke="#A9BCC9" stroke-width="0.9" stroke-linecap="round" stroke-linejoin="round" /><path d="M814 696V710" fill="none" stroke="#A9BCC9" stroke-width="0.9" stroke-linecap="round" stroke-linejoin="round" /><path d="M822 696V710" fill="none" stroke="#A9BCC9" stroke-width="0.9" stroke-linecap="round" stroke-linejoin="round" /><path d="M830 696V710" fill="none" stroke="#A9BCC9" stroke-width="0.9" stroke-linecap="round" stroke-linejoin="round" /><path d="M838 696V710" fill="none" stroke="#A9BCC9" stroke-width="0.9" stroke-linecap="round" stroke-linejoin="round" /><path d="M846 696V710" fill="none" stroke="#A9BCC9" stroke-width="0.9" stroke-linecap="round" stroke-linejoin="round" /><path d="M658 731V745" fill="none" stroke="#A9BCC9" stroke-width="0.9" stroke-linecap="round" stroke-linejoin="round" /><path d="M666 731V745" fill="none" stroke="#A9BCC9" stroke-width="0.9" stroke-linecap="round" stroke-linejoin="round" /><path d="M674 731V745" fill="none" stroke="#A9BCC9" stroke-width="0.9" stroke-linecap="round" stroke-linejoin="round" /><path d="M682 731V745" fill="none" stroke="#A9BCC9" stroke-width="0.9" stroke-linecap="round" stroke-linejoin="round" /><path d="M690 731V745" fill="none" stroke="#A9BCC9" stroke-width="0.9" stroke-linecap="round" stroke-linejoin="round" /><path d="M698 731V745" fill="none" stroke="#A9BCC9" stroke-width="0.9" stroke-linecap="round" stroke-linejoin="round" /><path d="M706 731V745" fill="none" stroke="#A9BCC9" stroke-width="0.9" stroke-linecap="round" stroke-linejoin="round" /><path d="M714 731V745" fill="none" stroke="#A9BCC9" stroke-width="0.9" stroke-linecap="round" stroke-linejoin="round" /><path d="M722 731V745" fill="none" stroke="#A9BCC9" stroke-width="0.9" stroke-linecap="round" stroke-linejoin="round" /><path d="M730 731V745" fill="none" stroke="#A9BCC9" stroke-width="0.9" stroke-linecap="round" stroke-linejoin="round" /><path d="M738 731V745" fill="none" stroke="#A9BCC9" stroke-width="0.9" stroke-linecap="round" stroke-linejoin="round" /><path d="M746 731V745" fill="none" stroke="#A9BCC9" stroke-width="0.9" stroke-linecap="round" stroke-linejoin="round" /><path d="M754 731V745" fill="none" stroke="#A9BCC9" stroke-width="0.9" stroke-linecap="round" stroke-linejoin="round" /><path d="M762 731V745" fill="none" stroke="#A9BCC9" stroke-width="0.9" stroke-linecap="round" stroke-linejoin="round" /><path d="M770 731V745" fill="none" stroke="#A9BCC9" stroke-width="0.9" stroke-linecap="round" stroke-linejoin="round" /><path d="M778 731V745" fill="none" stroke="#A9BCC9" stroke-width="0.9" stroke-linecap="round" stroke-linejoin="round" /><path d="M786 731V745" fill="none" stroke="#A9BCC9" stroke-width="0.9" stroke-linecap="round" stroke-linejoin="round" /><path d="M794 731V745" fill="none" stroke="#A9BCC9" stroke-width="0.9" stroke-linecap="round" stroke-linejoin="round" /><path d="M802 731V745" fill="none" stroke="#A9BCC9" stroke-width="0.9" stroke-linecap="round" stroke-linejoin="round" /><path d="M810 731V745" fill="none" stroke="#A9BCC9" stroke-width="0.9" stroke-linecap="round" stroke-linejoin="round" /><path d="M818 731V745" fill="none" stroke="#A9BCC9" stroke-width="0.9" stroke-linecap="round" stroke-linejoin="round" /><path d="M826 731V745" fill="none" stroke="#A9BCC9" stroke-width="0.9" stroke-linecap="round" stroke-linejoin="round" /><path d="M834 731V745" fill="none" stroke="#A9BCC9" stroke-width="0.9" stroke-linecap="round" stroke-linejoin="round" /><path d="M842 731V745" fill="none" stroke="#A9BCC9" stroke-width="0.9" stroke-linecap="round" stroke-linejoin="round" /><path d="M850 731V745" fill="none" stroke="#A9BCC9" stroke-width="0.9" stroke-linecap="round" stroke-linejoin="round" /><path d="M1027 696V710" fill="none" stroke="#A9BCC9" stroke-width="0.9" stroke-linecap="round" stroke-linejoin="round" /><path d="M1035 696V710" fill="none" stroke="#A9BCC9" stroke-width="0.9" stroke-linecap="round" stroke-linejoin="round" /><path d="M1043 696V710" fill="none" stroke="#A9BCC9" stroke-width="0.9" stroke-linecap="round" stroke-linejoin="round" /><path d="M1051 696V710" fill="none" stroke="#A9BCC9" stroke-width="0.9" stroke-linecap="round" stroke-linejoin="round" /><path d="M1059 696V710" fill="none" stroke="#A9BCC9" stroke-width="0.9" stroke-linecap="round" stroke-linejoin="round" /><path d="M1067 696V710" fill="none" stroke="#A9BCC9" stroke-width="0.9" stroke-linecap="round" stroke-linejoin="round" /><path d="M1075 696V710" fill="none" stroke="#A9BCC9" stroke-width="0.9" stroke-linecap="round" stroke-linejoin="round" /><path d="M1083 696V710" fill="none" stroke="#A9BCC9" stroke-width="0.9" stroke-linecap="round" stroke-linejoin="round" /><path d="M1091 696V710" fill="none" stroke="#A9BCC9" stroke-width="0.9" stroke-linecap="round" stroke-linejoin="round" /><path d="M1099 696V710" fill="none" stroke="#A9BCC9" stroke-width="0.9" stroke-linecap="round" stroke-linejoin="round" /><path d="M1107 696V710" fill="none" stroke="#A9BCC9" stroke-width="0.9" stroke-linecap="round" stroke-linejoin="round" /><path d="M1115 696V710" fill="none" stroke="#A9BCC9" stroke-width="0.9" stroke-linecap="round" stroke-linejoin="round" /><path d="M1123 696V710" fill="none" stroke="#A9BCC9" stroke-width="0.9" stroke-linecap="round" stroke-linejoin="round" /><path d="M1131 696V710" fill="none" stroke="#A9BCC9" stroke-width="0.9" stroke-linecap="round" stroke-linejoin="round" /><path d="M1139 696V710" fill="none" stroke="#A9BCC9" stroke-width="0.9" stroke-linecap="round" stroke-linejoin="round" /><path d="M1147 696V710" fill="none" stroke="#A9BCC9" stroke-width="0.9" stroke-linecap="round" stroke-linejoin="round" /><path d="M1155 696V710" fill="none" stroke="#A9BCC9" stroke-width="0.9" stroke-linecap="round" stroke-linejoin="round" /><path d="M1163 696V710" fill="none" stroke="#A9BCC9" stroke-width="0.9" stroke-linecap="round" stroke-linejoin="round" /><path d="M1171 696V710" fill="none" stroke="#A9BCC9" stroke-width="0.9" stroke-linecap="round" stroke-linejoin="round" /><path d="M1179 696V710" fill="none" stroke="#A9BCC9" stroke-width="0.9" stroke-linecap="round" stroke-linejoin="round" /><path d="M1187 696V710" fill="none" stroke="#A9BCC9" stroke-width="0.9" stroke-linecap="round" stroke-linejoin="round" /><path d="M1195 696V710" fill="none" stroke="#A9BCC9" stroke-width="0.9" stroke-linecap="round" stroke-linejoin="round" /><path d="M1203 696V710" fill="none" stroke="#A9BCC9" stroke-width="0.9" stroke-linecap="round" stroke-linejoin="round" /><path d="M1211 696V710" fill="none" stroke="#A9BCC9" stroke-width="0.9" stroke-linecap="round" stroke-linejoin="round" /><path d="M1027 731V745" fill="none" stroke="#A9BCC9" stroke-width="0.9" stroke-linecap="round" stroke-linejoin="round" /><path d="M1035 731V745" fill="none" stroke="#A9BCC9" stroke-width="0.9" stroke-linecap="round" stroke-linejoin="round" /><path d="M1043 731V745" fill="none" stroke="#A9BCC9" stroke-width="0.9" stroke-linecap="round" stroke-linejoin="round" /><path d="M1051 731V745" fill="none" stroke="#A9BCC9" stroke-width="0.9" stroke-linecap="round" stroke-linejoin="round" /><path d="M1059 731V745" fill="none" stroke="#A9BCC9" stroke-width="0.9" stroke-linecap="round" stroke-linejoin="round" /><path d="M1067 731V745" fill="none" stroke="#A9BCC9" stroke-width="0.9" stroke-linecap="round" stroke-linejoin="round" /><path d="M1075 731V745" fill="none" stroke="#A9BCC9" stroke-width="0.9" stroke-linecap="round" stroke-linejoin="round" /><path d="M1083 731V745" fill="none" stroke="#A9BCC9" stroke-width="0.9" stroke-linecap="round" stroke-linejoin="round" /><path d="M1091 731V745" fill="none" stroke="#A9BCC9" stroke-width="0.9" stroke-linecap="round" stroke-linejoin="round" /><path d="M1099 731V745" fill="none" stroke="#A9BCC9" stroke-width="0.9" stroke-linecap="round" stroke-linejoin="round" /><path d="M1107 731V745" fill="none" stroke="#A9BCC9" stroke-width="0.9" stroke-linecap="round" stroke-linejoin="round" /><path d="M1115 731V745" fill="none" stroke="#A9BCC9" stroke-width="0.9" stroke-linecap="round" stroke-linejoin="round" /><path d="M1123 731V745" fill="none" stroke="#A9BCC9" stroke-width="0.9" stroke-linecap="round" stroke-linejoin="round" /><path d="M1131 731V745" fill="none" stroke="#A9BCC9" stroke-width="0.9" stroke-linecap="round" stroke-linejoin="round" /><path d="M1139 731V745" fill="none" stroke="#A9BCC9" stroke-width="0.9" stroke-linecap="round" stroke-linejoin="round" /><path d="M1147 731V745" fill="none" stroke="#A9BCC9" stroke-width="0.9" stroke-linecap="round" stroke-linejoin="round" /><path d="M1155 731V745" fill="none" stroke="#A9BCC9" stroke-width="0.9" stroke-linecap="round" stroke-linejoin="round" /><path d="M1163 731V745" fill="none" stroke="#A9BCC9" stroke-width="0.9" stroke-linecap="round" stroke-linejoin="round" /><path d="M1171 731V745" fill="none" stroke="#A9BCC9" stroke-width="0.9" stroke-linecap="round" stroke-linejoin="round" /><path d="M1179 731V745" fill="none" stroke="#A9BCC9" stroke-width="0.9" stroke-linecap="round" stroke-linejoin="round" /><path d="M1187 731V745" fill="none" stroke="#A9BCC9" stroke-width="0.9" stroke-linecap="round" stroke-linejoin="round" /><path d="M1195 731V745" fill="none" stroke="#A9BCC9" stroke-width="0.9" stroke-linecap="round" stroke-linejoin="round" /><path d="M1203 731V745" fill="none" stroke="#A9BCC9" stroke-width="0.9" stroke-linecap="round" stroke-linejoin="round" /><path d="M1211 731V745" fill="none" stroke="#A9BCC9" stroke-width="0.9" stroke-linecap="round" stroke-linejoin="round" /><rect x="808" y="380" width="110" height="22" rx="3" fill="#ECE7FA" stroke="none" stroke-width="0" /><rect x="489" y="416" width="10" height="71" rx="1.8" fill="#54788A" stroke="none" stroke-width="0" /><rect x="549" y="382" width="71" height="14" rx="1.8" fill="#54788A" stroke="none" stroke-width="0" /><rect x="577" y="522" width="72" height="14" rx="1.8" fill="#54788A" stroke="none" stroke-width="0" /><rect x="962" y="382" width="73" height="14" rx="1.8" fill="#54788A" stroke="none" stroke-width="0" /><rect x="1122" y="382" width="71" height="14" rx="1.8" fill="#54788A" stroke="none" stroke-width="0" /><rect x="1280" y="382" width="71" height="14" rx="1.8" fill="#54788A" stroke="none" stroke-width="0" /><rect x="1022" y="522" width="69" height="14" rx="1.8" fill="#54788A" stroke="none" stroke-width="0" /><rect x="1258" y="522" width="67" height="14" rx="1.8" fill="#54788A" stroke="none" stroke-width="0" /><rect x="674" y="382" width="35" height="14" rx="1.8" fill="#54788A" stroke="none" stroke-width="0" /><rect x="712" y="382" width="38" height="14" rx="1.8" fill="#54788A" stroke="none" stroke-width="0" /><rect x="754" y="382" width="35" height="14" rx="1.8" fill="#54788A" stroke="none" stroke-width="0" /><rect x="657" y="522" width="31" height="14" rx="1.8" fill="#54788A" stroke="none" stroke-width="0" /><rect x="695" y="522" width="35" height="14" rx="1.8" fill="#54788A" stroke="none" stroke-width="0" /><rect x="733" y="522" width="35" height="14" rx="1.8" fill="#54788A" stroke="none" stroke-width="0" /><rect x="1239" y="382" width="35" height="14" rx="1.8" fill="#54788A" stroke="none" stroke-width="0" /><rect x="1040" y="382" width="37" height="14" rx="1.8" fill="#54788A" stroke="none" stroke-width="0" /><rect x="1081" y="382" width="35" height="14" rx="1.8" fill="#54788A" stroke="none" stroke-width="0" /><rect x="1198" y="382" width="36" height="14" rx="1.8" fill="#54788A" stroke="none" stroke-width="0" /><rect x="1101" y="522" width="30" height="14" rx="1.8" fill="#54788A" stroke="none" stroke-width="0" /><rect x="1140" y="522" width="32" height="14" rx="1.8" fill="#54788A" stroke="none" stroke-width="0" /><rect x="1179" y="522" width="32" height="14" rx="1.8" fill="#54788A" stroke="none" stroke-width="0" /><rect x="1218" y="522" width="31" height="14" rx="1.8" fill="#54788A" stroke="none" stroke-width="0" /><g id="hall-door-1" data-hall="JTCC HALL" class="door-swing-symbol"><path d="M444 340H429M444 370H429" fill="none" stroke="#375666" stroke-width="1.7" stroke-linecap="round" stroke-linejoin="round" /><path d="M429 340A15 15 0 0 0 444 355A15 15 0 0 0 429 370" fill="none" stroke="#8BA3B2" stroke-width="1.1" stroke-linecap="round" stroke-linejoin="round" /></g><g id="hall-door-2" data-hall="JTCC HALL" class="door-swing-symbol"><path d="M444 374H429.5M444 403H429.5" fill="none" stroke="#375666" stroke-width="1.7" stroke-linecap="round" stroke-linejoin="round" /><path d="M429.5 374A14.5 14.5 0 0 0 444 388.5A14.5 14.5 0 0 0 429.5 403" fill="none" stroke="#8BA3B2" stroke-width="1.1" stroke-linecap="round" stroke-linejoin="round" /></g><g id="hall-door-3" data-hall="UPSIDER HALL" class="door-swing-symbol"><path d="M444 470H426.5M444 505H426.5" fill="none" stroke="#375666" stroke-width="1.7" stroke-linecap="round" stroke-linejoin="round" /><path d="M426.5 470A17.5 17.5 0 0 0 444 487.5A17.5 17.5 0 0 0 426.5 505" fill="none" stroke="#8BA3B2" stroke-width="1.1" stroke-linecap="round" stroke-linejoin="round" /></g><g id="hall-door-4" data-hall="UPSIDER HALL" class="door-swing-symbol"><path d="M444 509H426M444 545H426" fill="none" stroke="#375666" stroke-width="1.7" stroke-linecap="round" stroke-linejoin="round" /><path d="M426 509A18 18 0 0 0 444 527A18 18 0 0 0 426 545" fill="none" stroke="#8BA3B2" stroke-width="1.1" stroke-linecap="round" stroke-linejoin="round" /></g><g id="hall-door-5" data-hall="UPSIDER HALL" class="door-swing-symbol"><path d="M444 594H421M444 640H421" fill="none" stroke="#375666" stroke-width="1.7" stroke-linecap="round" stroke-linejoin="round" /><path d="M421 594A23 23 0 0 0 444 617A23 23 0 0 0 421 640" fill="none" stroke="#8BA3B2" stroke-width="1.1" stroke-linecap="round" stroke-linejoin="round" /></g><g id="hall-door-6" data-hall="Cupertino" class="door-swing-symbol"><path d="M1407 310H1424.5M1407 345H1424.5" fill="none" stroke="#375666" stroke-width="1.7" stroke-linecap="round" stroke-linejoin="round" /><path d="M1424.5 310A17.5 17.5 0 0 1 1407 327.5A17.5 17.5 0 0 1 1424.5 345" fill="none" stroke="#8BA3B2" stroke-width="1.1" stroke-linecap="round" stroke-linejoin="round" /></g><g id="hall-door-7" data-hall="Cupertino" class="door-swing-symbol"><path d="M1407 350H1425M1407 386H1425" fill="none" stroke="#375666" stroke-width="1.7" stroke-linecap="round" stroke-linejoin="round" /><path d="M1425 350A18 18 0 0 1 1407 368A18 18 0 0 1 1425 386" fill="none" stroke="#8BA3B2" stroke-width="1.1" stroke-linecap="round" stroke-linejoin="round" /></g><g id="hall-door-8" data-hall="Material" class="door-swing-symbol"><path d="M1407 443H1423.5M1407 476H1423.5" fill="none" stroke="#375666" stroke-width="1.7" stroke-linecap="round" stroke-linejoin="round" /><path d="M1423.5 443A16.5 16.5 0 0 1 1407 459.5A16.5 16.5 0 0 1 1423.5 476" fill="none" stroke="#8BA3B2" stroke-width="1.1" stroke-linecap="round" stroke-linejoin="round" /></g><g id="hall-door-9" data-hall="Material" class="door-swing-symbol"><path d="M1407 481H1423M1407 513H1423" fill="none" stroke="#375666" stroke-width="1.7" stroke-linecap="round" stroke-linejoin="round" /><path d="M1423 481A16 16 0 0 1 1407 497A16 16 0 0 1 1423 513" fill="none" stroke="#8BA3B2" stroke-width="1.1" stroke-linecap="round" stroke-linejoin="round" /></g><g id="hall-door-10" data-hall="Material" class="door-swing-symbol"><path d="M1407 628H1425.5M1407 665H1425.5" fill="none" stroke="#375666" stroke-width="1.7" stroke-linecap="round" stroke-linejoin="round" /><path d="M1425.5 628A18.5 18.5 0 0 1 1407 646.5A18.5 18.5 0 0 1 1425.5 665" fill="none" stroke="#8BA3B2" stroke-width="1.1" stroke-linecap="round" stroke-linejoin="round" /></g><rect x="26" y="77" width="1718" height="686" rx="6" fill="none" stroke="#203D4E" stroke-width="4" /></svg>