<svg width="27" height="29" viewBox="0 0 27 29" fill="none" xmlns="http://www.w3.org/2000/svg">
<path d="M8.60596 15.5637V16.7631" stroke="#21005D" stroke-width="2.66667" stroke-linecap="round" stroke-linejoin="round"/>
<path d="M13.3521 15.5637V16.7631" stroke="#21005D" stroke-width="2.66667" stroke-linecap="round" stroke-linejoin="round"/>
<path d="M18.0996 15.5637V16.7631" stroke="#21005D" stroke-width="2.66667" stroke-linecap="round" stroke-linejoin="round"/>
<path d="M8.60596 20.3103V21.5097" stroke="#21005D" stroke-width="2.66667" stroke-linecap="round" stroke-linejoin="round"/>
<path d="M13.3521 20.3103V21.5097" stroke="#21005D" stroke-width="2.66667" stroke-linecap="round" stroke-linejoin="round"/>
<path d="M18.0996 20.3103V21.5097" stroke="#21005D" stroke-width="2.66667" stroke-linecap="round" stroke-linejoin="round"/>
<path d="M25.3327 9.45361V21.0724L18.8363 27.569H3.35738C2.81947 27.5657 2.30471 27.3497 1.92551 26.9681C1.54632 26.5866 1.33349 26.0705 1.3335 25.5326V9.45361H25.3327Z" stroke="#21005D" stroke-width="2.66667" stroke-linecap="round" stroke-linejoin="round"/>
<path d="M23.3465 3.59424H3.3575C2.82612 3.60728 2.32091 3.82758 1.94976 4.20808C1.57861 4.58857 1.37093 5.09911 1.37109 5.63065V9.45362H25.3329V5.63065C25.333 5.09911 25.1253 4.58857 24.7542 4.20808C24.383 3.82758 23.8778 3.60728 23.3465 3.59424Z" stroke="#21005D" stroke-width="2.66667" stroke-linecap="round" stroke-linejoin="round"/>
<path d="M6.41846 5.58099V1.33325" stroke="#21005D" stroke-width="2.66667" stroke-linecap="round" stroke-linejoin="round"/>
<path d="M20.2856 5.58099V1.33325" stroke="#21005D" stroke-width="2.66667" stroke-linecap="round" stroke-linejoin="round"/>
<path d="M25.3329 21.0728L18.8365 27.5693V22.8094C18.8348 22.5809 18.8786 22.3543 18.9653 22.1429C19.052 21.9314 19.1798 21.7393 19.3414 21.5777C19.503 21.4161 19.6951 21.2883 19.9065 21.2016C20.1179 21.1149 20.3445 21.0711 20.573 21.0728H25.3329Z" stroke="#21005D" stroke-width="2.66667" stroke-linecap="round" stroke-linejoin="round"/>
</svg>
