<svg width="22" height="28" viewBox="0 0 22 28" fill="none" xmlns="http://www.w3.org/2000/svg">
<path fill-rule="evenodd" clip-rule="evenodd" d="M10.6667 0C16.5577 0 21.3333 4.77563 21.3333 10.6667C21.3333 11.3857 21.2622 12.0882 21.1265 12.7674C20.1851 19.862 10.7227 27.9365 10.7227 27.9365C10.7227 27.9365 2.67017 21.065 0.682951 14.4303C0.241527 13.2599 0 11.9915 0 10.6667C0 4.77563 4.77563 0 10.6667 0Z" fill="white"/>
<path d="M14.73 10.667C14.73 8.4228 12.9107 6.60352 10.6665 6.60352C8.42231 6.60352 6.60303 8.4228 6.60303 10.667C6.60303 12.9112 8.42231 14.7305 10.6665 14.7305C12.9107 14.7305 14.73 12.9112 14.73 10.667Z" fill="#6200EA"/>
</svg>
