<svg width="512" height="512" viewBox="0 0 512 512" fill="none" xmlns="http://www.w3.org/2000/svg">
<path d="M332.906 240.411L225.199 346.247L286.728 406.706L456.007 240.411H332.906Z" fill="#54C5F8"/>
<path d="M456 58.9941L194.406 316.013L132.845 255.534L332.9 58.9941H456Z" fill="#54C5F8"/>
<path d="M348.282 346.249L286.71 406.707L332.889 452.075H455.989L348.282 346.249Z" fill="#01579B"/>
<path d="M348.29 346.249L286.718 406.707L378.02 375.669L348.29 346.249Z" fill="url(#paint0_linear_895_2053)"/>
<path d="M286.725 285.778L225.174 346.249L286.725 406.719L348.277 346.249L286.725 285.778Z" fill="#29B6F6"/>
<path d="M123.805 451.953C161.253 451.953 191.61 422.129 191.61 385.339C191.61 348.549 161.253 318.725 123.805 318.725C86.3574 318.725 56 348.549 56 385.339C56 422.129 86.3574 451.953 123.805 451.953Z" fill="#FF0000"/>
<defs>
<linearGradient id="paint0_linear_895_2053" x1="304.681" y1="418.391" x2="349.713" y2="372.55" gradientUnits="userSpaceOnUse">
<stop stop-color="#1A237E" stop-opacity="0.4"/>
<stop offset="1" stop-color="#1A237E" stop-opacity="0"/>
</linearGradient>
</defs>
</svg>
